<mxfile host="app.diagrams.net" agent="Mozilla/5.0 (X11; Linux x86_64) AppleWebKit/537.36 (KHTML, like Gecko) Chrome/128.0.0.0 Safari/537.36" version="24.7.16">
  <diagram name="Page-1" id="n-gtXVRMFqsfB-nA3Jrw">
    <mxGraphModel dx="2138" dy="974" grid="0" gridSize="10" guides="1" tooltips="1" connect="1" arrows="1" fold="1" page="0" pageScale="1" pageWidth="1100" pageHeight="850" background="none" math="0" shadow="0">
      <root>
        <mxCell id="0" />
        <mxCell id="1" parent="0" />
        <mxCell id="XpzlnwSWE0qTDpSJB6l2-2" value="Main" style="rounded=1;whiteSpace=wrap;html=1;" parent="1" vertex="1">
          <mxGeometry x="342" y="645" width="90" height="40" as="geometry" />
        </mxCell>
        <mxCell id="XpzlnwSWE0qTDpSJB6l2-3" value="ui.run" style="rounded=1;whiteSpace=wrap;html=1;" parent="1" vertex="1">
          <mxGeometry x="342" y="725" width="90" height="40" as="geometry" />
        </mxCell>
        <mxCell id="XpzlnwSWE0qTDpSJB6l2-4" value="" style="endArrow=classic;html=1;rounded=0;exitX=0.5;exitY=1;exitDx=0;exitDy=0;" parent="1" source="XpzlnwSWE0qTDpSJB6l2-2" target="XpzlnwSWE0qTDpSJB6l2-3" edge="1">
          <mxGeometry width="50" height="50" relative="1" as="geometry">
            <mxPoint x="502" y="815" as="sourcePoint" />
            <mxPoint x="552" y="765" as="targetPoint" />
          </mxGeometry>
        </mxCell>
        <mxCell id="XpzlnwSWE0qTDpSJB6l2-5" value="callBack, board" style="edgeLabel;html=1;align=center;verticalAlign=middle;resizable=0;points=[];" parent="XpzlnwSWE0qTDpSJB6l2-4" vertex="1" connectable="0">
          <mxGeometry x="0.0296" y="-2" relative="1" as="geometry">
            <mxPoint x="43" as="offset" />
          </mxGeometry>
        </mxCell>
        <mxCell id="XpzlnwSWE0qTDpSJB6l2-8" value="gout.drawHover" style="rounded=1;whiteSpace=wrap;html=1;" parent="1" vertex="1">
          <mxGeometry x="-310" y="410" width="98" height="40" as="geometry" />
        </mxCell>
        <mxCell id="XpzlnwSWE0qTDpSJB6l2-10" value="glColour" style="rounded=1;whiteSpace=wrap;html=1;" parent="1" vertex="1">
          <mxGeometry x="-349" y="680" width="90" height="40" as="geometry" />
        </mxCell>
        <mxCell id="XpzlnwSWE0qTDpSJB6l2-11" value="gout.drawBoard" style="rounded=1;whiteSpace=wrap;html=1;" parent="1" vertex="1">
          <mxGeometry x="-439" y="410" width="110" height="40" as="geometry" />
        </mxCell>
        <mxCell id="XpzlnwSWE0qTDpSJB6l2-12" value="draw" style="rounded=1;whiteSpace=wrap;html=1;" parent="1" vertex="1">
          <mxGeometry x="-259" y="210" width="200" height="40" as="geometry" />
        </mxCell>
        <mxCell id="XpzlnwSWE0qTDpSJB6l2-14" value="isBlack" style="rounded=1;whiteSpace=wrap;html=1;" parent="1" vertex="1">
          <mxGeometry x="990" y="553.8199999999999" width="90" height="40" as="geometry" />
        </mxCell>
        <mxCell id="XpzlnwSWE0qTDpSJB6l2-13" value="move" style="rounded=1;whiteSpace=wrap;html=1;" parent="1" vertex="1">
          <mxGeometry x="860" y="272" width="90" height="40" as="geometry" />
        </mxCell>
        <mxCell id="XpzlnwSWE0qTDpSJB6l2-15" value="isWhite" style="rounded=1;whiteSpace=wrap;html=1;" parent="1" vertex="1">
          <mxGeometry x="885" y="553.8199999999999" width="90" height="40" as="geometry" />
        </mxCell>
        <mxCell id="XpzlnwSWE0qTDpSJB6l2-16" value="isNotWhite" style="rounded=1;whiteSpace=wrap;html=1;" parent="1" vertex="1">
          <mxGeometry x="660" y="553.8199999999999" width="90" height="40" as="geometry" />
        </mxCell>
        <mxCell id="XpzlnwSWE0qTDpSJB6l2-17" value="clearSelectedPosition" style="rounded=1;whiteSpace=wrap;html=1;" parent="1" vertex="1">
          <mxGeometry x="580" y="272" width="130" height="40" as="geometry" />
        </mxCell>
        <mxCell id="XpzlnwSWE0qTDpSJB6l2-18" value="ui.getSelectPosition" style="rounded=1;whiteSpace=wrap;html=1;" parent="1" vertex="1">
          <mxGeometry x="630" y="385" width="130" height="40" as="geometry" />
        </mxCell>
        <mxCell id="XpzlnwSWE0qTDpSJB6l2-20" value="getPossibleMoves" style="rounded=1;whiteSpace=wrap;html=1;" parent="1" vertex="1">
          <mxGeometry x="820" y="385" width="120" height="40" as="geometry" />
        </mxCell>
        <mxCell id="XpzlnwSWE0qTDpSJB6l2-21" value="callBack" style="rounded=1;whiteSpace=wrap;html=1;" parent="1" vertex="1">
          <mxGeometry x="810" y="160" width="90" height="40" as="geometry" />
        </mxCell>
        <mxCell id="XpzlnwSWE0qTDpSJB6l2-27" value="isNotBlack" style="rounded=1;whiteSpace=wrap;html=1;" parent="1" vertex="1">
          <mxGeometry x="770" y="553.8199999999999" width="90" height="40" as="geometry" />
        </mxCell>
        <mxCell id="XpzlnwSWE0qTDpSJB6l2-36" value="" style="endArrow=classic;html=1;rounded=0;entryX=0.5;entryY=0;entryDx=0;entryDy=0;startArrow=none;startFill=0;endFill=1;exitX=0.071;exitY=1.013;exitDx=0;exitDy=0;exitPerimeter=0;" parent="1" source="XpzlnwSWE0qTDpSJB6l2-21" target="XpzlnwSWE0qTDpSJB6l2-17" edge="1">
          <mxGeometry width="50" height="50" relative="1" as="geometry">
            <mxPoint x="740" y="210" as="sourcePoint" />
            <mxPoint x="685" y="170" as="targetPoint" />
          </mxGeometry>
        </mxCell>
        <mxCell id="XpzlnwSWE0qTDpSJB6l2-38" value="" style="endArrow=none;html=1;rounded=0;exitX=0.25;exitY=1;exitDx=0;exitDy=0;entryX=0.5;entryY=0;entryDx=0;entryDy=0;startArrow=classic;startFill=1;endFill=0;" parent="1" source="XpzlnwSWE0qTDpSJB6l2-21" target="XpzlnwSWE0qTDpSJB6l2-18" edge="1">
          <mxGeometry width="50" height="50" relative="1" as="geometry">
            <mxPoint x="850" y="210" as="sourcePoint" />
            <mxPoint x="652" y="267" as="targetPoint" />
          </mxGeometry>
        </mxCell>
        <mxCell id="XpzlnwSWE0qTDpSJB6l2-76" value="posSelect" style="edgeLabel;html=1;align=center;verticalAlign=middle;resizable=0;points=[];" parent="XpzlnwSWE0qTDpSJB6l2-38" vertex="1" connectable="0">
          <mxGeometry x="0.2657" y="-2" relative="1" as="geometry">
            <mxPoint x="-20" y="44" as="offset" />
          </mxGeometry>
        </mxCell>
        <mxCell id="XpzlnwSWE0qTDpSJB6l2-39" value="" style="endArrow=none;html=1;rounded=0;entryX=0.5;entryY=0;entryDx=0;entryDy=0;startArrow=classic;startFill=1;endFill=0;exitX=0.859;exitY=1.019;exitDx=0;exitDy=0;exitPerimeter=0;" parent="1" source="XpzlnwSWE0qTDpSJB6l2-21" target="XpzlnwSWE0qTDpSJB6l2-19" edge="1">
          <mxGeometry width="50" height="50" relative="1" as="geometry">
            <mxPoint x="855" y="200" as="sourcePoint" />
            <mxPoint x="795" y="267" as="targetPoint" />
          </mxGeometry>
        </mxCell>
        <mxCell id="XpzlnwSWE0qTDpSJB6l2-77" value="posSelectPrevious" style="edgeLabel;html=1;align=center;verticalAlign=middle;resizable=0;points=[];" parent="XpzlnwSWE0qTDpSJB6l2-39" vertex="1" connectable="0">
          <mxGeometry x="-0.0223" relative="1" as="geometry">
            <mxPoint x="61" y="7" as="offset" />
          </mxGeometry>
        </mxCell>
        <mxCell id="XpzlnwSWE0qTDpSJB6l2-40" value="" style="endArrow=none;html=1;rounded=0;exitX=0.75;exitY=1;exitDx=0;exitDy=0;entryX=0.5;entryY=0;entryDx=0;entryDy=0;startArrow=classic;startFill=1;endFill=0;" parent="1" source="XpzlnwSWE0qTDpSJB6l2-21" target="XpzlnwSWE0qTDpSJB6l2-13" edge="1">
          <mxGeometry width="50" height="50" relative="1" as="geometry">
            <mxPoint x="843" y="210" as="sourcePoint" />
            <mxPoint x="645" y="267" as="targetPoint" />
          </mxGeometry>
        </mxCell>
        <mxCell id="XpzlnwSWE0qTDpSJB6l2-70" value="possible" style="edgeLabel;html=1;align=center;verticalAlign=middle;resizable=0;points=[];" parent="XpzlnwSWE0qTDpSJB6l2-40" vertex="1" connectable="0">
          <mxGeometry x="0.3313" y="-2" relative="1" as="geometry">
            <mxPoint x="6" y="-5" as="offset" />
          </mxGeometry>
        </mxCell>
        <mxCell id="XpzlnwSWE0qTDpSJB6l2-41" value="" style="endArrow=classic;html=1;rounded=0;exitX=0.5;exitY=1;exitDx=0;exitDy=0;entryX=0.71;entryY=-0.015;entryDx=0;entryDy=0;entryPerimeter=0;" parent="1" source="XpzlnwSWE0qTDpSJB6l2-13" target="XpzlnwSWE0qTDpSJB6l2-20" edge="1">
          <mxGeometry width="50" height="50" relative="1" as="geometry">
            <mxPoint x="888" y="225" as="sourcePoint" />
            <mxPoint x="1080" y="282" as="targetPoint" />
          </mxGeometry>
        </mxCell>
        <mxCell id="XpzlnwSWE0qTDpSJB6l2-42" value="&lt;span style=&quot;color: rgb(0, 0, 0); font-family: Helvetica; font-size: 11px; font-style: normal; font-variant-ligatures: normal; font-variant-caps: normal; font-weight: 400; letter-spacing: normal; orphans: 2; text-align: center; text-indent: 0px; text-transform: none; widows: 2; word-spacing: 0px; -webkit-text-stroke-width: 0px; white-space: nowrap; background-color: rgb(255, 255, 255); text-decoration-thickness: initial; text-decoration-style: initial; text-decoration-color: initial; display: inline !important; float: none;&quot;&gt;board,&lt;/span&gt;&lt;div&gt;&lt;span style=&quot;color: rgb(0, 0, 0); font-family: Helvetica; font-size: 11px; font-style: normal; font-variant-ligatures: normal; font-variant-caps: normal; font-weight: 400; letter-spacing: normal; orphans: 2; text-align: center; text-indent: 0px; text-transform: none; widows: 2; word-spacing: 0px; -webkit-text-stroke-width: 0px; white-space: nowrap; background-color: rgb(255, 255, 255); text-decoration-thickness: initial; text-decoration-style: initial; text-decoration-color: initial; display: inline !important; float: none;&quot;&gt;positionFrom,&lt;/span&gt;&lt;/div&gt;&lt;div&gt;&lt;span style=&quot;color: rgb(0, 0, 0); font-family: Helvetica; font-size: 11px; font-style: normal; font-variant-ligatures: normal; font-variant-caps: normal; font-weight: 400; letter-spacing: normal; orphans: 2; text-align: center; text-indent: 0px; text-transform: none; widows: 2; word-spacing: 0px; -webkit-text-stroke-width: 0px; white-space: nowrap; background-color: rgb(255, 255, 255); text-decoration-thickness: initial; text-decoration-style: initial; text-decoration-color: initial; display: inline !important; float: none;&quot;&gt;positionTo&lt;/span&gt;&lt;/div&gt;" style="edgeLabel;html=1;align=center;verticalAlign=middle;resizable=0;points=[];" parent="XpzlnwSWE0qTDpSJB6l2-41" vertex="1" connectable="0">
          <mxGeometry x="0.5368" y="2" relative="1" as="geometry">
            <mxPoint x="38" y="-19" as="offset" />
          </mxGeometry>
        </mxCell>
        <mxCell id="XpzlnwSWE0qTDpSJB6l2-43" value="" style="endArrow=classic;html=1;rounded=0;entryX=0.365;entryY=1.053;entryDx=0;entryDy=0;exitX=0.596;exitY=-0.025;exitDx=0;exitDy=0;exitPerimeter=0;entryPerimeter=0;" parent="1" edge="1">
          <mxGeometry width="50" height="50" relative="1" as="geometry">
            <mxPoint x="897.5199999999998" y="383.9999999999999" as="sourcePoint" />
            <mxPoint x="896.8499999999997" y="314.12" as="targetPoint" />
          </mxGeometry>
        </mxCell>
        <mxCell id="XpzlnwSWE0qTDpSJB6l2-44" value="&lt;span style=&quot;color: rgba(0, 0, 0, 0); font-family: monospace; font-size: 0px; text-align: start; background-color: rgb(251, 251, 251);&quot;&gt;%3CmxGraphModel%3E%3Croot%3E%3CmxCell%20id%3D%220%22%2F%3E%3CmxCell%20id%3D%221%22%20parent%3D%220%22%2F%3E%3CmxCell%20id%3D%222%22%20value%3D%22movesIsPossable%22%20style%3D%22edgeLabel%3Bhtml%3D1%3Balign%3Dcenter%3BverticalAlign%3Dmiddle%3Bresizable%3D0%3Bpoints%3D%5B%5D%3B%22%20vertex%3D%221%22%20connectable%3D%220%22%20parent%3D%221%22%3E%3CmxGeometry%20x%3D%22755.3597291077517%22%20y%3D%22219.9455995241592%22%20as%3D%22geometry%22%2F%3E%3C%2FmxCell%3E%3C%2Froot%3E%3C%2FmxGraphModel%3E&lt;/span&gt;" style="edgeLabel;html=1;align=center;verticalAlign=middle;resizable=0;points=[];" parent="XpzlnwSWE0qTDpSJB6l2-43" vertex="1" connectable="0">
          <mxGeometry x="0.5368" y="2" relative="1" as="geometry">
            <mxPoint x="-30" y="15" as="offset" />
          </mxGeometry>
        </mxCell>
        <mxCell id="XpzlnwSWE0qTDpSJB6l2-72" value="possible" style="edgeLabel;html=1;align=center;verticalAlign=middle;resizable=0;points=[];" parent="XpzlnwSWE0qTDpSJB6l2-43" vertex="1" connectable="0">
          <mxGeometry x="0.1227" y="1" relative="1" as="geometry">
            <mxPoint x="-24" y="5" as="offset" />
          </mxGeometry>
        </mxCell>
        <mxCell id="XpzlnwSWE0qTDpSJB6l2-45" value="" style="endArrow=classic;html=1;rounded=0;entryX=0.608;entryY=0.024;entryDx=0;entryDy=0;entryPerimeter=0;exitX=0.167;exitY=1;exitDx=0;exitDy=0;exitPerimeter=0;" parent="1" source="XpzlnwSWE0qTDpSJB6l2-20" target="XpzlnwSWE0qTDpSJB6l2-16" edge="1">
          <mxGeometry width="50" height="50" relative="1" as="geometry">
            <mxPoint x="810" y="452.82" as="sourcePoint" />
            <mxPoint x="723" y="441.82" as="targetPoint" />
          </mxGeometry>
        </mxCell>
        <mxCell id="XpzlnwSWE0qTDpSJB6l2-46" value="board,&lt;br&gt;col,&lt;div&gt;row&lt;/div&gt;" style="edgeLabel;html=1;align=center;verticalAlign=middle;resizable=0;points=[];" parent="XpzlnwSWE0qTDpSJB6l2-45" vertex="1" connectable="0">
          <mxGeometry x="0.5368" y="2" relative="1" as="geometry">
            <mxPoint x="53" y="-26" as="offset" />
          </mxGeometry>
        </mxCell>
        <mxCell id="XpzlnwSWE0qTDpSJB6l2-47" value="" style="endArrow=classic;html=1;rounded=0;exitX=0.451;exitY=-0.02;exitDx=0;exitDy=0;exitPerimeter=0;entryX=0.041;entryY=1.029;entryDx=0;entryDy=0;entryPerimeter=0;" parent="1" source="XpzlnwSWE0qTDpSJB6l2-16" target="XpzlnwSWE0qTDpSJB6l2-20" edge="1">
          <mxGeometry width="50" height="50" relative="1" as="geometry">
            <mxPoint x="860" y="491.82" as="sourcePoint" />
            <mxPoint x="760" y="471.82" as="targetPoint" />
          </mxGeometry>
        </mxCell>
        <mxCell id="XpzlnwSWE0qTDpSJB6l2-49" value="isNotWhite" style="edgeLabel;html=1;align=center;verticalAlign=middle;resizable=0;points=[];" parent="XpzlnwSWE0qTDpSJB6l2-47" vertex="1" connectable="0">
          <mxGeometry x="-0.1055" relative="1" as="geometry">
            <mxPoint x="-29" y="-3" as="offset" />
          </mxGeometry>
        </mxCell>
        <mxCell id="XpzlnwSWE0qTDpSJB6l2-50" value="" style="endArrow=classic;html=1;rounded=0;exitX=0.25;exitY=1;exitDx=0;exitDy=0;entryX=0.354;entryY=-0.02;entryDx=0;entryDy=0;entryPerimeter=0;" parent="1" source="XpzlnwSWE0qTDpSJB6l2-20" target="XpzlnwSWE0qTDpSJB6l2-27" edge="1">
          <mxGeometry width="50" height="50" relative="1" as="geometry">
            <mxPoint x="839" y="492.82" as="sourcePoint" />
            <mxPoint x="745" y="548.82" as="targetPoint" />
          </mxGeometry>
        </mxCell>
        <mxCell id="XpzlnwSWE0qTDpSJB6l2-52" value="" style="endArrow=classic;html=1;rounded=0;exitX=0.5;exitY=0;exitDx=0;exitDy=0;entryX=0.335;entryY=1.017;entryDx=0;entryDy=0;entryPerimeter=0;" parent="1" source="XpzlnwSWE0qTDpSJB6l2-27" target="XpzlnwSWE0qTDpSJB6l2-20" edge="1">
          <mxGeometry width="50" height="50" relative="1" as="geometry">
            <mxPoint x="758" y="548.82" as="sourcePoint" />
            <mxPoint x="851" y="489.82" as="targetPoint" />
          </mxGeometry>
        </mxCell>
        <mxCell id="XpzlnwSWE0qTDpSJB6l2-53" value="isNotBlack" style="edgeLabel;html=1;align=center;verticalAlign=middle;resizable=0;points=[];" parent="XpzlnwSWE0qTDpSJB6l2-52" vertex="1" connectable="0">
          <mxGeometry x="-0.1055" relative="1" as="geometry">
            <mxPoint x="26" y="-3" as="offset" />
          </mxGeometry>
        </mxCell>
        <mxCell id="XpzlnwSWE0qTDpSJB6l2-61" value="" style="endArrow=classic;html=1;rounded=0;entryX=0.25;entryY=0;entryDx=0;entryDy=0;exitX=0.868;exitY=0.995;exitDx=0;exitDy=0;exitPerimeter=0;" parent="1" source="XpzlnwSWE0qTDpSJB6l2-20" target="XpzlnwSWE0qTDpSJB6l2-14" edge="1">
          <mxGeometry width="50" height="50" relative="1" as="geometry">
            <mxPoint x="549" y="538.82" as="sourcePoint" />
            <mxPoint x="444" y="626.8199999999999" as="targetPoint" />
          </mxGeometry>
        </mxCell>
        <mxCell id="XpzlnwSWE0qTDpSJB6l2-63" value="" style="endArrow=classic;html=1;rounded=0;exitX=0.5;exitY=0;exitDx=0;exitDy=0;entryX=0.958;entryY=0.999;entryDx=0;entryDy=0;entryPerimeter=0;" parent="1" source="XpzlnwSWE0qTDpSJB6l2-14" target="XpzlnwSWE0qTDpSJB6l2-20" edge="1">
          <mxGeometry width="50" height="50" relative="1" as="geometry">
            <mxPoint x="430" y="624.8199999999999" as="sourcePoint" />
            <mxPoint x="910" y="451.82" as="targetPoint" />
          </mxGeometry>
        </mxCell>
        <mxCell id="XpzlnwSWE0qTDpSJB6l2-64" value="isBlack" style="edgeLabel;html=1;align=center;verticalAlign=middle;resizable=0;points=[];" parent="XpzlnwSWE0qTDpSJB6l2-63" vertex="1" connectable="0">
          <mxGeometry x="-0.1055" relative="1" as="geometry">
            <mxPoint y="-18" as="offset" />
          </mxGeometry>
        </mxCell>
        <mxCell id="XpzlnwSWE0qTDpSJB6l2-65" value="" style="endArrow=classic;html=1;rounded=0;exitX=0.702;exitY=1.04;exitDx=0;exitDy=0;entryX=0.558;entryY=-0.053;entryDx=0;entryDy=0;entryPerimeter=0;exitPerimeter=0;" parent="1" source="XpzlnwSWE0qTDpSJB6l2-20" target="XpzlnwSWE0qTDpSJB6l2-15" edge="1">
          <mxGeometry width="50" height="50" relative="1" as="geometry">
            <mxPoint x="559" y="538.82" as="sourcePoint" />
            <mxPoint x="521" y="624.8199999999999" as="targetPoint" />
          </mxGeometry>
        </mxCell>
        <mxCell id="XpzlnwSWE0qTDpSJB6l2-66" value="" style="endArrow=classic;html=1;rounded=0;exitX=0.372;exitY=-0.031;exitDx=0;exitDy=0;entryX=0.585;entryY=1.062;entryDx=0;entryDy=0;exitPerimeter=0;entryPerimeter=0;" parent="1" source="XpzlnwSWE0qTDpSJB6l2-15" target="XpzlnwSWE0qTDpSJB6l2-20" edge="1">
          <mxGeometry width="50" height="50" relative="1" as="geometry">
            <mxPoint x="965" y="517.82" as="sourcePoint" />
            <mxPoint x="1000" y="431.82" as="targetPoint" />
          </mxGeometry>
        </mxCell>
        <mxCell id="XpzlnwSWE0qTDpSJB6l2-67" value="isWhite" style="edgeLabel;html=1;align=center;verticalAlign=middle;resizable=0;points=[];" parent="XpzlnwSWE0qTDpSJB6l2-66" vertex="1" connectable="0">
          <mxGeometry x="-0.1055" relative="1" as="geometry">
            <mxPoint x="-12" y="23" as="offset" />
          </mxGeometry>
        </mxCell>
        <mxCell id="XpzlnwSWE0qTDpSJB6l2-68" value="board,&lt;br&gt;col,&lt;div&gt;row&lt;/div&gt;" style="edgeLabel;html=1;align=center;verticalAlign=middle;resizable=0;points=[];" parent="1" vertex="1" connectable="0">
          <mxGeometry x="770.0027239495781" y="500.00305670409585" as="geometry">
            <mxPoint x="178" y="3" as="offset" />
          </mxGeometry>
        </mxCell>
        <mxCell id="XpzlnwSWE0qTDpSJB6l2-73" value="" style="endArrow=classic;html=1;rounded=0;entryX=0.5;entryY=0;entryDx=0;entryDy=0;exitX=0.172;exitY=0.981;exitDx=0;exitDy=0;exitPerimeter=0;" parent="1" source="XpzlnwSWE0qTDpSJB6l2-21" target="XpzlnwSWE0qTDpSJB6l2-122" edge="1">
          <mxGeometry width="50" height="50" relative="1" as="geometry">
            <mxPoint x="820" y="200" as="sourcePoint" />
            <mxPoint x="645" y="267" as="targetPoint" />
          </mxGeometry>
        </mxCell>
        <mxCell id="XpzlnwSWE0qTDpSJB6l2-74" value="board, pUI, possible" style="edgeLabel;html=1;align=center;verticalAlign=middle;resizable=0;points=[];" parent="XpzlnwSWE0qTDpSJB6l2-73" vertex="1" connectable="0">
          <mxGeometry x="0.4612" y="-3" relative="1" as="geometry">
            <mxPoint x="11" y="-9" as="offset" />
          </mxGeometry>
        </mxCell>
        <mxCell id="XpzlnwSWE0qTDpSJB6l2-78" value="" style="endArrow=classic;html=1;rounded=0;exitX=0.25;exitY=0;exitDx=0;exitDy=0;" parent="1" edge="1">
          <mxGeometry width="50" height="50" relative="1" as="geometry">
            <mxPoint x="850.9999999999998" y="384.9999999999999" as="sourcePoint" />
            <mxPoint x="851" y="200" as="targetPoint" />
          </mxGeometry>
        </mxCell>
        <mxCell id="XpzlnwSWE0qTDpSJB6l2-79" value="&lt;span style=&quot;color: rgba(0, 0, 0, 0); font-family: monospace; font-size: 0px; text-align: start; background-color: rgb(251, 251, 251);&quot;&gt;%3CmxGraphModel%3E%3Croot%3E%3CmxCell%20id%3D%220%22%2F%3E%3CmxCell%20id%3D%221%22%20parent%3D%220%22%2F%3E%3CmxCell%20id%3D%222%22%20value%3D%22movesIsPossable%22%20style%3D%22edgeLabel%3Bhtml%3D1%3Balign%3Dcenter%3BverticalAlign%3Dmiddle%3Bresizable%3D0%3Bpoints%3D%5B%5D%3B%22%20vertex%3D%221%22%20connectable%3D%220%22%20parent%3D%221%22%3E%3CmxGeometry%20x%3D%22755.3597291077517%22%20y%3D%22219.9455995241592%22%20as%3D%22geometry%22%2F%3E%3C%2FmxCell%3E%3C%2Froot%3E%3C%2FmxGraphModel%3E&lt;/span&gt;" style="edgeLabel;html=1;align=center;verticalAlign=middle;resizable=0;points=[];" parent="XpzlnwSWE0qTDpSJB6l2-78" vertex="1" connectable="0">
          <mxGeometry x="0.5368" y="2" relative="1" as="geometry">
            <mxPoint x="-30" y="15" as="offset" />
          </mxGeometry>
        </mxCell>
        <mxCell id="XpzlnwSWE0qTDpSJB6l2-81" value="" style="endArrow=classic;html=1;rounded=0;exitX=0.327;exitY=1.03;exitDx=0;exitDy=0;entryX=0.158;entryY=0.039;entryDx=0;entryDy=0;entryPerimeter=0;exitPerimeter=0;" parent="1" edge="1">
          <mxGeometry width="50" height="50" relative="1" as="geometry">
            <mxPoint x="843.4299999999998" y="201.19999999999993" as="sourcePoint" />
            <mxPoint x="842.9599999999998" y="386.55999999999995" as="targetPoint" />
          </mxGeometry>
        </mxCell>
        <mxCell id="XpzlnwSWE0qTDpSJB6l2-82" value="&lt;span style=&quot;color: rgb(0, 0, 0); font-family: Helvetica; font-size: 11px; font-style: normal; font-variant-ligatures: normal; font-variant-caps: normal; font-weight: 400; letter-spacing: normal; orphans: 2; text-align: center; text-indent: 0px; text-transform: none; widows: 2; word-spacing: 0px; -webkit-text-stroke-width: 0px; white-space: nowrap; background-color: rgb(255, 255, 255); text-decoration-thickness: initial; text-decoration-style: initial; text-decoration-color: initial; display: inline !important; float: none;&quot;&gt;board,&lt;/span&gt;&lt;div&gt;&lt;span style=&quot;color: rgb(0, 0, 0); font-family: Helvetica; font-size: 11px; font-style: normal; font-variant-ligatures: normal; font-variant-caps: normal; font-weight: 400; letter-spacing: normal; orphans: 2; text-align: center; text-indent: 0px; text-transform: none; widows: 2; word-spacing: 0px; -webkit-text-stroke-width: 0px; white-space: nowrap; background-color: rgb(255, 255, 255); text-decoration-thickness: initial; text-decoration-style: initial; text-decoration-color: initial; display: inline !important; float: none;&quot;&gt;positionFrom,&lt;/span&gt;&lt;/div&gt;&lt;div&gt;&lt;span style=&quot;color: rgb(0, 0, 0); font-family: Helvetica; font-size: 11px; font-style: normal; font-variant-ligatures: normal; font-variant-caps: normal; font-weight: 400; letter-spacing: normal; orphans: 2; text-align: center; text-indent: 0px; text-transform: none; widows: 2; word-spacing: 0px; -webkit-text-stroke-width: 0px; white-space: nowrap; background-color: rgb(255, 255, 255); text-decoration-thickness: initial; text-decoration-style: initial; text-decoration-color: initial; display: inline !important; float: none;&quot;&gt;positionTo&lt;/span&gt;&lt;/div&gt;" style="edgeLabel;html=1;align=center;verticalAlign=middle;resizable=0;points=[];" parent="XpzlnwSWE0qTDpSJB6l2-81" vertex="1" connectable="0">
          <mxGeometry x="0.5368" y="2" relative="1" as="geometry">
            <mxPoint x="-38" y="-3" as="offset" />
          </mxGeometry>
        </mxCell>
        <mxCell id="XpzlnwSWE0qTDpSJB6l2-19" value="getPreviousPosition" style="rounded=1;whiteSpace=wrap;html=1;" parent="1" vertex="1">
          <mxGeometry x="960" y="272" width="120" height="40" as="geometry" />
        </mxCell>
        <mxCell id="XpzlnwSWE0qTDpSJB6l2-86" value="" style="endArrow=classic;html=1;rounded=0;exitX=0.195;exitY=1.024;exitDx=0;exitDy=0;entryX=0.5;entryY=0;entryDx=0;entryDy=0;exitPerimeter=0;" parent="1" source="XpzlnwSWE0qTDpSJB6l2-12" target="XpzlnwSWE0qTDpSJB6l2-11" edge="1">
          <mxGeometry width="50" height="50" relative="1" as="geometry">
            <mxPoint x="281" y="310" as="sourcePoint" />
            <mxPoint x="11" y="480" as="targetPoint" />
          </mxGeometry>
        </mxCell>
        <mxCell id="XpzlnwSWE0qTDpSJB6l2-88" value="" style="endArrow=classic;html=1;rounded=0;exitX=0.333;exitY=1.003;exitDx=0;exitDy=0;entryX=0.5;entryY=0;entryDx=0;entryDy=0;exitPerimeter=0;" parent="1" source="XpzlnwSWE0qTDpSJB6l2-12" target="XpzlnwSWE0qTDpSJB6l2-8" edge="1">
          <mxGeometry width="50" height="50" relative="1" as="geometry">
            <mxPoint x="239" y="312" as="sourcePoint" />
            <mxPoint x="336" y="370" as="targetPoint" />
          </mxGeometry>
        </mxCell>
        <mxCell id="XpzlnwSWE0qTDpSJB6l2-89" value="position" style="edgeLabel;html=1;align=center;verticalAlign=middle;resizable=0;points=[];" parent="XpzlnwSWE0qTDpSJB6l2-88" vertex="1" connectable="0">
          <mxGeometry x="-0.0496" y="-3" relative="1" as="geometry">
            <mxPoint y="4" as="offset" />
          </mxGeometry>
        </mxCell>
        <mxCell id="XpzlnwSWE0qTDpSJB6l2-91" value="" style="endArrow=classic;html=1;rounded=0;exitX=0.5;exitY=1;exitDx=0;exitDy=0;entryX=0.403;entryY=0.059;entryDx=0;entryDy=0;entryPerimeter=0;" parent="1" source="XpzlnwSWE0qTDpSJB6l2-8" target="XpzlnwSWE0qTDpSJB6l2-10" edge="1">
          <mxGeometry width="50" height="50" relative="1" as="geometry">
            <mxPoint x="24" y="470" as="sourcePoint" />
            <mxPoint x="51" y="535" as="targetPoint" />
          </mxGeometry>
        </mxCell>
        <mxCell id="XpzlnwSWE0qTDpSJB6l2-102" value="rgb" style="edgeLabel;html=1;align=center;verticalAlign=middle;resizable=0;points=[];" parent="XpzlnwSWE0qTDpSJB6l2-91" vertex="1" connectable="0">
          <mxGeometry x="-0.1811" y="2" relative="1" as="geometry">
            <mxPoint as="offset" />
          </mxGeometry>
        </mxCell>
        <mxCell id="XpzlnwSWE0qTDpSJB6l2-92" value="" style="endArrow=classic;html=1;rounded=0;exitX=0.5;exitY=1;exitDx=0;exitDy=0;entryX=0.25;entryY=0;entryDx=0;entryDy=0;" parent="1" source="XpzlnwSWE0qTDpSJB6l2-11" target="XpzlnwSWE0qTDpSJB6l2-10" edge="1">
          <mxGeometry width="50" height="50" relative="1" as="geometry">
            <mxPoint x="136" y="465" as="sourcePoint" />
            <mxPoint x="176" y="515" as="targetPoint" />
          </mxGeometry>
        </mxCell>
        <mxCell id="XpzlnwSWE0qTDpSJB6l2-101" value="rgb" style="edgeLabel;html=1;align=center;verticalAlign=middle;resizable=0;points=[];" parent="XpzlnwSWE0qTDpSJB6l2-92" vertex="1" connectable="0">
          <mxGeometry x="0.0078" y="-1" relative="1" as="geometry">
            <mxPoint as="offset" />
          </mxGeometry>
        </mxCell>
        <mxCell id="XpzlnwSWE0qTDpSJB6l2-93" value="drawPiece" style="rounded=1;whiteSpace=wrap;html=1;" parent="1" vertex="1">
          <mxGeometry x="-559" y="569.9999999999999" width="90" height="40" as="geometry" />
        </mxCell>
        <mxCell id="XpzlnwSWE0qTDpSJB6l2-94" value="gout.drawPossible" style="rounded=1;whiteSpace=wrap;html=1;" parent="1" vertex="1">
          <mxGeometry x="-199" y="410" width="130" height="40" as="geometry" />
        </mxCell>
        <mxCell id="XpzlnwSWE0qTDpSJB6l2-95" value="gout.drawSelected" style="rounded=1;whiteSpace=wrap;html=1;" parent="1" vertex="1">
          <mxGeometry x="-59" y="410" width="110" height="40" as="geometry" />
        </mxCell>
        <mxCell id="XpzlnwSWE0qTDpSJB6l2-96" value="ui.getHoverPosition" style="rounded=1;whiteSpace=wrap;html=1;" parent="1" vertex="1">
          <mxGeometry x="60" y="410" width="113" height="40" as="geometry" />
        </mxCell>
        <mxCell id="XpzlnwSWE0qTDpSJB6l2-97" value="" style="endArrow=classic;html=1;rounded=0;exitX=0.5;exitY=0;exitDx=0;exitDy=0;entryX=0.75;entryY=1;entryDx=0;entryDy=0;" parent="1" source="XpzlnwSWE0qTDpSJB6l2-96" target="XpzlnwSWE0qTDpSJB6l2-12" edge="1">
          <mxGeometry width="50" height="50" relative="1" as="geometry">
            <mxPoint x="141" y="317" as="sourcePoint" />
            <mxPoint x="111" y="210" as="targetPoint" />
          </mxGeometry>
        </mxCell>
        <mxCell id="XpzlnwSWE0qTDpSJB6l2-98" value="posHover" style="edgeLabel;html=1;align=center;verticalAlign=middle;resizable=0;points=[];" parent="XpzlnwSWE0qTDpSJB6l2-97" vertex="1" connectable="0">
          <mxGeometry x="-0.0496" y="-3" relative="1" as="geometry">
            <mxPoint y="-7" as="offset" />
          </mxGeometry>
        </mxCell>
        <mxCell id="XpzlnwSWE0qTDpSJB6l2-99" value="" style="endArrow=classic;html=1;rounded=0;exitX=0.5;exitY=0;exitDx=0;exitDy=0;entryX=0.5;entryY=1;entryDx=0;entryDy=0;" parent="1" source="XpzlnwSWE0qTDpSJB6l2-18" target="XpzlnwSWE0qTDpSJB6l2-122" edge="1">
          <mxGeometry width="50" height="50" relative="1" as="geometry">
            <mxPoint x="590" y="322" as="sourcePoint" />
            <mxPoint x="622" y="395" as="targetPoint" />
          </mxGeometry>
        </mxCell>
        <mxCell id="XpzlnwSWE0qTDpSJB6l2-100" value="posSelect" style="edgeLabel;html=1;align=center;verticalAlign=middle;resizable=0;points=[];" parent="XpzlnwSWE0qTDpSJB6l2-99" vertex="1" connectable="0">
          <mxGeometry x="-0.004" y="-2" relative="1" as="geometry">
            <mxPoint x="44" y="13" as="offset" />
          </mxGeometry>
        </mxCell>
        <mxCell id="XpzlnwSWE0qTDpSJB6l2-103" value="" style="endArrow=classic;html=1;rounded=0;exitX=0.587;exitY=1.031;exitDx=0;exitDy=0;entryX=0.5;entryY=0;entryDx=0;entryDy=0;exitPerimeter=0;" parent="1" source="XpzlnwSWE0qTDpSJB6l2-12" target="XpzlnwSWE0qTDpSJB6l2-95" edge="1">
          <mxGeometry width="50" height="50" relative="1" as="geometry">
            <mxPoint x="228" y="312" as="sourcePoint" />
            <mxPoint x="160" y="385" as="targetPoint" />
          </mxGeometry>
        </mxCell>
        <mxCell id="XpzlnwSWE0qTDpSJB6l2-104" value="position" style="edgeLabel;html=1;align=center;verticalAlign=middle;resizable=0;points=[];" parent="XpzlnwSWE0qTDpSJB6l2-103" vertex="1" connectable="0">
          <mxGeometry x="-0.0496" y="-3" relative="1" as="geometry">
            <mxPoint y="4" as="offset" />
          </mxGeometry>
        </mxCell>
        <mxCell id="XpzlnwSWE0qTDpSJB6l2-105" value="" style="endArrow=classic;html=1;rounded=0;exitX=0.5;exitY=1;exitDx=0;exitDy=0;entryX=0.5;entryY=0;entryDx=0;entryDy=0;" parent="1" source="XpzlnwSWE0qTDpSJB6l2-12" target="XpzlnwSWE0qTDpSJB6l2-94" edge="1">
          <mxGeometry width="50" height="50" relative="1" as="geometry">
            <mxPoint x="121" y="290" as="sourcePoint" />
            <mxPoint x="-49" y="363" as="targetPoint" />
          </mxGeometry>
        </mxCell>
        <mxCell id="XpzlnwSWE0qTDpSJB6l2-106" value="position" style="edgeLabel;html=1;align=center;verticalAlign=middle;resizable=0;points=[];" parent="XpzlnwSWE0qTDpSJB6l2-105" vertex="1" connectable="0">
          <mxGeometry x="-0.0496" y="-3" relative="1" as="geometry">
            <mxPoint y="4" as="offset" />
          </mxGeometry>
        </mxCell>
        <mxCell id="XpzlnwSWE0qTDpSJB6l2-107" value="" style="endArrow=classic;html=1;rounded=0;exitX=0.5;exitY=1;exitDx=0;exitDy=0;entryX=0.75;entryY=0;entryDx=0;entryDy=0;" parent="1" source="XpzlnwSWE0qTDpSJB6l2-95" target="XpzlnwSWE0qTDpSJB6l2-10" edge="1">
          <mxGeometry width="50" height="50" relative="1" as="geometry">
            <mxPoint x="120" y="460" as="sourcePoint" />
            <mxPoint x="31" y="535" as="targetPoint" />
          </mxGeometry>
        </mxCell>
        <mxCell id="XpzlnwSWE0qTDpSJB6l2-108" value="rgb" style="edgeLabel;html=1;align=center;verticalAlign=middle;resizable=0;points=[];" parent="XpzlnwSWE0qTDpSJB6l2-107" vertex="1" connectable="0">
          <mxGeometry x="-0.1811" y="2" relative="1" as="geometry">
            <mxPoint as="offset" />
          </mxGeometry>
        </mxCell>
        <mxCell id="XpzlnwSWE0qTDpSJB6l2-109" value="" style="endArrow=classic;html=1;rounded=0;exitX=0.5;exitY=1;exitDx=0;exitDy=0;entryX=0.627;entryY=-0.011;entryDx=0;entryDy=0;entryPerimeter=0;" parent="1" target="XpzlnwSWE0qTDpSJB6l2-10" edge="1">
          <mxGeometry width="50" height="50" relative="1" as="geometry">
            <mxPoint x="-131" y="450" as="sourcePoint" />
            <mxPoint x="-323.5" y="650" as="targetPoint" />
          </mxGeometry>
        </mxCell>
        <mxCell id="XpzlnwSWE0qTDpSJB6l2-110" value="rgb" style="edgeLabel;html=1;align=center;verticalAlign=middle;resizable=0;points=[];" parent="XpzlnwSWE0qTDpSJB6l2-109" vertex="1" connectable="0">
          <mxGeometry x="-0.1811" y="2" relative="1" as="geometry">
            <mxPoint as="offset" />
          </mxGeometry>
        </mxCell>
        <mxCell id="XpzlnwSWE0qTDpSJB6l2-111" value="ui.getSelectPosition" style="rounded=1;whiteSpace=wrap;html=1;" parent="1" vertex="1">
          <mxGeometry x="181" y="410" width="129" height="40" as="geometry" />
        </mxCell>
        <mxCell id="XpzlnwSWE0qTDpSJB6l2-112" value="" style="endArrow=classic;html=1;rounded=0;exitX=0.5;exitY=0;exitDx=0;exitDy=0;entryX=0.869;entryY=1;entryDx=0;entryDy=0;entryPerimeter=0;" parent="1" source="XpzlnwSWE0qTDpSJB6l2-111" target="XpzlnwSWE0qTDpSJB6l2-12" edge="1">
          <mxGeometry width="50" height="50" relative="1" as="geometry">
            <mxPoint x="-279" y="345" as="sourcePoint" />
            <mxPoint x="-359" y="250" as="targetPoint" />
          </mxGeometry>
        </mxCell>
        <mxCell id="XpzlnwSWE0qTDpSJB6l2-113" value="posSelect" style="edgeLabel;html=1;align=center;verticalAlign=middle;resizable=0;points=[];" parent="XpzlnwSWE0qTDpSJB6l2-112" vertex="1" connectable="0">
          <mxGeometry x="-0.0496" y="-3" relative="1" as="geometry">
            <mxPoint x="-3" y="-7" as="offset" />
          </mxGeometry>
        </mxCell>
        <mxCell id="XpzlnwSWE0qTDpSJB6l2-115" value="gout.drawQueen" style="rounded=1;whiteSpace=wrap;html=1;" parent="1" vertex="1">
          <mxGeometry x="-646" y="410" width="100" height="40" as="geometry" />
        </mxCell>
        <mxCell id="XpzlnwSWE0qTDpSJB6l2-116" value="gout.drawKing" style="rounded=1;whiteSpace=wrap;html=1;" parent="1" vertex="1">
          <mxGeometry x="-744" y="410" width="90" height="40" as="geometry" />
        </mxCell>
        <mxCell id="XpzlnwSWE0qTDpSJB6l2-120" value="" style="endArrow=none;html=1;rounded=0;exitX=0.5;exitY=0;exitDx=0;exitDy=0;entryX=0.039;entryY=1.031;entryDx=0;entryDy=0;entryPerimeter=0;startArrow=classic;startFill=1;endFill=0;" parent="1" source="XpzlnwSWE0qTDpSJB6l2-116" target="XpzlnwSWE0qTDpSJB6l2-12" edge="1">
          <mxGeometry width="50" height="50" relative="1" as="geometry">
            <mxPoint x="-526" y="354" as="sourcePoint" />
            <mxPoint x="-279" y="230" as="targetPoint" />
          </mxGeometry>
        </mxCell>
        <mxCell id="XpzlnwSWE0qTDpSJB6l2-121" value="pos, isBlack" style="edgeLabel;html=1;align=center;verticalAlign=middle;resizable=0;points=[];" parent="XpzlnwSWE0qTDpSJB6l2-120" vertex="1" connectable="0">
          <mxGeometry x="-0.0496" y="-3" relative="1" as="geometry">
            <mxPoint x="-81" y="13" as="offset" />
          </mxGeometry>
        </mxCell>
        <mxCell id="XpzlnwSWE0qTDpSJB6l2-122" value="draw" style="rounded=1;whiteSpace=wrap;html=1;" parent="1" vertex="1">
          <mxGeometry x="490" y="272" width="80" height="40" as="geometry" />
        </mxCell>
        <mxCell id="XpzlnwSWE0qTDpSJB6l2-123" value="gout.draw...." style="rounded=1;whiteSpace=wrap;html=1;" parent="1" vertex="1">
          <mxGeometry x="-539" y="410" width="90" height="40" as="geometry" />
        </mxCell>
        <mxCell id="XpzlnwSWE0qTDpSJB6l2-126" value="" style="endArrow=none;html=1;rounded=0;exitX=0.5;exitY=0;exitDx=0;exitDy=0;entryX=0.086;entryY=1.035;entryDx=0;entryDy=0;entryPerimeter=0;startArrow=classic;startFill=1;endFill=0;" parent="1" source="XpzlnwSWE0qTDpSJB6l2-115" target="XpzlnwSWE0qTDpSJB6l2-12" edge="1">
          <mxGeometry width="50" height="50" relative="1" as="geometry">
            <mxPoint x="-684" y="420" as="sourcePoint" />
            <mxPoint x="-231" y="313" as="targetPoint" />
          </mxGeometry>
        </mxCell>
        <mxCell id="XpzlnwSWE0qTDpSJB6l2-127" value="pos, isBlack" style="edgeLabel;html=1;align=center;verticalAlign=middle;resizable=0;points=[];" parent="XpzlnwSWE0qTDpSJB6l2-126" vertex="1" connectable="0">
          <mxGeometry x="-0.0496" y="-3" relative="1" as="geometry">
            <mxPoint x="-48" y="8" as="offset" />
          </mxGeometry>
        </mxCell>
        <mxCell id="XpzlnwSWE0qTDpSJB6l2-128" value="" style="endArrow=none;html=1;rounded=0;exitX=0.5;exitY=0;exitDx=0;exitDy=0;entryX=0.138;entryY=1.008;entryDx=0;entryDy=0;entryPerimeter=0;startArrow=classic;startFill=1;endFill=0;" parent="1" source="XpzlnwSWE0qTDpSJB6l2-123" target="XpzlnwSWE0qTDpSJB6l2-12" edge="1">
          <mxGeometry width="50" height="50" relative="1" as="geometry">
            <mxPoint x="-584" y="420" as="sourcePoint" />
            <mxPoint x="-222" y="313" as="targetPoint" />
          </mxGeometry>
        </mxCell>
        <mxCell id="XpzlnwSWE0qTDpSJB6l2-129" value="pos, isBlack" style="edgeLabel;html=1;align=center;verticalAlign=middle;resizable=0;points=[];" parent="XpzlnwSWE0qTDpSJB6l2-128" vertex="1" connectable="0">
          <mxGeometry x="-0.0496" y="-3" relative="1" as="geometry">
            <mxPoint x="-6" y="-2" as="offset" />
          </mxGeometry>
        </mxCell>
        <mxCell id="XpzlnwSWE0qTDpSJB6l2-130" value="yFromPosition" style="rounded=1;whiteSpace=wrap;html=1;" parent="1" vertex="1">
          <mxGeometry x="-679" y="570" width="90" height="40" as="geometry" />
        </mxCell>
        <mxCell id="XpzlnwSWE0qTDpSJB6l2-131" value="" style="endArrow=classic;html=1;rounded=0;exitX=0.5;exitY=1;exitDx=0;exitDy=0;entryX=0.111;entryY=0.006;entryDx=0;entryDy=0;entryPerimeter=0;" parent="1" source="XpzlnwSWE0qTDpSJB6l2-93" target="XpzlnwSWE0qTDpSJB6l2-10" edge="1">
          <mxGeometry width="50" height="50" relative="1" as="geometry">
            <mxPoint x="-285" y="520" as="sourcePoint" />
            <mxPoint x="-249" y="650" as="targetPoint" />
          </mxGeometry>
        </mxCell>
        <mxCell id="XpzlnwSWE0qTDpSJB6l2-132" value="rgb" style="edgeLabel;html=1;align=center;verticalAlign=middle;resizable=0;points=[];" parent="XpzlnwSWE0qTDpSJB6l2-131" vertex="1" connectable="0">
          <mxGeometry x="-0.1811" y="2" relative="1" as="geometry">
            <mxPoint as="offset" />
          </mxGeometry>
        </mxCell>
        <mxCell id="XpzlnwSWE0qTDpSJB6l2-133" value="" style="endArrow=classic;html=1;rounded=0;exitX=0.5;exitY=1;exitDx=0;exitDy=0;entryX=0.5;entryY=0;entryDx=0;entryDy=0;startArrow=classic;startFill=1;" parent="1" source="XpzlnwSWE0qTDpSJB6l2-123" target="XpzlnwSWE0qTDpSJB6l2-130" edge="1">
          <mxGeometry width="50" height="50" relative="1" as="geometry">
            <mxPoint x="-479" y="583.8199999999999" as="sourcePoint" />
            <mxPoint x="-454" y="743.8199999999999" as="targetPoint" />
          </mxGeometry>
        </mxCell>
        <mxCell id="XpzlnwSWE0qTDpSJB6l2-135" value="" style="endArrow=classic;html=1;rounded=0;exitX=0.5;exitY=1;exitDx=0;exitDy=0;entryX=0.428;entryY=0.065;entryDx=0;entryDy=0;entryPerimeter=0;startArrow=classic;startFill=1;" parent="1" source="XpzlnwSWE0qTDpSJB6l2-115" target="XpzlnwSWE0qTDpSJB6l2-130" edge="1">
          <mxGeometry width="50" height="50" relative="1" as="geometry">
            <mxPoint x="-596" y="463" as="sourcePoint" />
            <mxPoint x="-646" y="517" as="targetPoint" />
          </mxGeometry>
        </mxCell>
        <mxCell id="XpzlnwSWE0qTDpSJB6l2-136" value="position" style="edgeLabel;html=1;align=center;verticalAlign=middle;resizable=0;points=[];" parent="XpzlnwSWE0qTDpSJB6l2-135" vertex="1" connectable="0">
          <mxGeometry x="-0.0496" y="-3" relative="1" as="geometry">
            <mxPoint x="-14" y="43" as="offset" />
          </mxGeometry>
        </mxCell>
        <mxCell id="XpzlnwSWE0qTDpSJB6l2-137" value="" style="endArrow=classic;html=1;rounded=0;exitX=0.5;exitY=1;exitDx=0;exitDy=0;entryX=0.301;entryY=0.022;entryDx=0;entryDy=0;startArrow=classic;startFill=1;entryPerimeter=0;" parent="1" source="XpzlnwSWE0qTDpSJB6l2-116" target="XpzlnwSWE0qTDpSJB6l2-130" edge="1">
          <mxGeometry width="50" height="50" relative="1" as="geometry">
            <mxPoint x="-769" y="490" as="sourcePoint" />
            <mxPoint x="-723" y="546" as="targetPoint" />
          </mxGeometry>
        </mxCell>
        <mxCell id="XpzlnwSWE0qTDpSJB6l2-138" value="position" style="edgeLabel;html=1;align=center;verticalAlign=middle;resizable=0;points=[];" parent="XpzlnwSWE0qTDpSJB6l2-137" vertex="1" connectable="0">
          <mxGeometry x="-0.0496" y="-3" relative="1" as="geometry">
            <mxPoint x="-44" y="41" as="offset" />
          </mxGeometry>
        </mxCell>
        <mxCell id="XpzlnwSWE0qTDpSJB6l2-140" value="yFromPosition" style="rounded=1;whiteSpace=wrap;html=1;" parent="1" vertex="1">
          <mxGeometry x="-789" y="570" width="90" height="40" as="geometry" />
        </mxCell>
        <mxCell id="XpzlnwSWE0qTDpSJB6l2-141" value="" style="endArrow=classic;html=1;rounded=0;entryX=0.5;entryY=0;entryDx=0;entryDy=0;startArrow=classic;startFill=1;exitX=0.25;exitY=1;exitDx=0;exitDy=0;" parent="1" source="XpzlnwSWE0qTDpSJB6l2-123" target="XpzlnwSWE0qTDpSJB6l2-140" edge="1">
          <mxGeometry width="50" height="50" relative="1" as="geometry">
            <mxPoint x="-634" y="530" as="sourcePoint" />
            <mxPoint x="-594" y="823.8199999999999" as="targetPoint" />
          </mxGeometry>
        </mxCell>
        <mxCell id="XpzlnwSWE0qTDpSJB6l2-143" value="" style="endArrow=classic;html=1;rounded=0;exitX=0.362;exitY=1.048;exitDx=0;exitDy=0;entryX=0.428;entryY=0.065;entryDx=0;entryDy=0;entryPerimeter=0;startArrow=classic;startFill=1;exitPerimeter=0;" parent="1" source="XpzlnwSWE0qTDpSJB6l2-115" target="XpzlnwSWE0qTDpSJB6l2-140" edge="1">
          <mxGeometry width="50" height="50" relative="1" as="geometry">
            <mxPoint x="-736" y="530" as="sourcePoint" />
            <mxPoint x="-786" y="597" as="targetPoint" />
          </mxGeometry>
        </mxCell>
        <mxCell id="XpzlnwSWE0qTDpSJB6l2-145" value="" style="endArrow=classic;html=1;rounded=0;exitX=0.333;exitY=1.048;exitDx=0;exitDy=0;entryX=0.301;entryY=0.022;entryDx=0;entryDy=0;startArrow=classic;startFill=1;entryPerimeter=0;exitPerimeter=0;" parent="1" source="XpzlnwSWE0qTDpSJB6l2-116" target="XpzlnwSWE0qTDpSJB6l2-140" edge="1">
          <mxGeometry width="50" height="50" relative="1" as="geometry">
            <mxPoint x="-839" y="530" as="sourcePoint" />
            <mxPoint x="-863" y="626" as="targetPoint" />
          </mxGeometry>
        </mxCell>
        <mxCell id="XpzlnwSWE0qTDpSJB6l2-147" value="" style="endArrow=none;html=1;rounded=0;exitX=0.5;exitY=0;exitDx=0;exitDy=0;startArrow=classic;startFill=1;entryX=0.641;entryY=1.017;entryDx=0;entryDy=0;entryPerimeter=0;endFill=0;" parent="1" source="XpzlnwSWE0qTDpSJB6l2-93" target="XpzlnwSWE0qTDpSJB6l2-123" edge="1">
          <mxGeometry width="50" height="50" relative="1" as="geometry">
            <mxPoint x="-449" y="620" as="sourcePoint" />
            <mxPoint x="-469" y="490" as="targetPoint" />
          </mxGeometry>
        </mxCell>
        <mxCell id="XpzlnwSWE0qTDpSJB6l2-148" value="&lt;span style=&quot;color: rgba(0, 0, 0, 0); font-family: monospace; font-size: 0px; text-align: start; background-color: rgb(251, 251, 251);&quot;&gt;%3CmxGraphModel%3E%3Croot%3E%3CmxCell%20id%3D%220%22%2F%3E%3CmxCell%20id%3D%221%22%20parent%3D%220%22%2F%3E%3CmxCell%20id%3D%222%22%20value%3D%22%22%20style%3D%22endArrow%3Dclassic%3Bhtml%3D1%3Brounded%3D0%3BexitX%3D0.5%3BexitY%3D1%3BexitDx%3D0%3BexitDy%3D0%3BentryX%3D0.5%3BentryY%3D0%3BentryDx%3D0%3BentryDy%3D0%3BstartArrow%3Dclassic%3BstartFill%3D1%3B%22%20edge%3D%221%22%20parent%3D%221%22%3E%3CmxGeometry%20width%3D%2250%22%20height%3D%2250%22%20relative%3D%221%22%20as%3D%22geometry%22%3E%3CmxPoint%20x%3D%22-315%22%20y%3D%22460%22%20as%3D%22sourcePoint%22%2F%3E%3CmxPoint%20x%3D%22-375%22%20y%3D%22540%22%20as%3D%22targetPoint%22%2F%3E%3C%2FmxGeometry%3E%3C%2FmxCell%3E%3CmxCell%20id%3D%223%22%20value%3D%22position%22%20style%3D%22edgeLabel%3Bhtml%3D1%3Balign%3Dcenter%3BverticalAlign%3Dmiddle%3Bresizable%3D0%3Bpoints%3D%5B%5D%3B%22%20vertex%3D%221%22%20connectable%3D%220%22%20parent%3D%222%22%3E%3CmxGeometry%20x%3D%22-0.0496%22%20y%3D%22-3%22%20relative%3D%221%22%20as%3D%22geometry%22%3E%3CmxPoint%20x%3D%22-24%22%20y%3D%224%22%20as%3D%22offset%22%2F%3E%3C%2FmxGeometry%3E%3C%2FmxCell%3E%3C%2Froot%3E%3C%2FmxGraphModel%3E&lt;/span&gt;" style="edgeLabel;html=1;align=center;verticalAlign=middle;resizable=0;points=[];" parent="XpzlnwSWE0qTDpSJB6l2-147" vertex="1" connectable="0">
          <mxGeometry x="-0.0496" y="-3" relative="1" as="geometry">
            <mxPoint x="-24" y="4" as="offset" />
          </mxGeometry>
        </mxCell>
        <mxCell id="XpzlnwSWE0qTDpSJB6l2-149" value="x, y, black, rectangle, num" style="edgeLabel;html=1;align=center;verticalAlign=middle;resizable=0;points=[];" parent="XpzlnwSWE0qTDpSJB6l2-147" vertex="1" connectable="0">
          <mxGeometry x="-0.3417" relative="1" as="geometry">
            <mxPoint x="-16" y="9" as="offset" />
          </mxGeometry>
        </mxCell>
        <mxCell id="XpzlnwSWE0qTDpSJB6l2-153" value="" style="endArrow=none;html=1;rounded=0;exitX=0.414;exitY=-0.02;exitDx=0;exitDy=0;startArrow=classic;startFill=1;entryX=0.75;entryY=1;entryDx=0;entryDy=0;endFill=0;exitPerimeter=0;" parent="1" source="XpzlnwSWE0qTDpSJB6l2-93" target="XpzlnwSWE0qTDpSJB6l2-115" edge="1">
          <mxGeometry width="50" height="50" relative="1" as="geometry">
            <mxPoint x="-372" y="559" as="sourcePoint" />
            <mxPoint x="-379" y="480" as="targetPoint" />
          </mxGeometry>
        </mxCell>
        <mxCell id="XpzlnwSWE0qTDpSJB6l2-154" value="&lt;span style=&quot;color: rgba(0, 0, 0, 0); font-family: monospace; font-size: 0px; text-align: start; background-color: rgb(251, 251, 251);&quot;&gt;%3CmxGraphModel%3E%3Croot%3E%3CmxCell%20id%3D%220%22%2F%3E%3CmxCell%20id%3D%221%22%20parent%3D%220%22%2F%3E%3CmxCell%20id%3D%222%22%20value%3D%22%22%20style%3D%22endArrow%3Dclassic%3Bhtml%3D1%3Brounded%3D0%3BexitX%3D0.5%3BexitY%3D1%3BexitDx%3D0%3BexitDy%3D0%3BentryX%3D0.5%3BentryY%3D0%3BentryDx%3D0%3BentryDy%3D0%3BstartArrow%3Dclassic%3BstartFill%3D1%3B%22%20edge%3D%221%22%20parent%3D%221%22%3E%3CmxGeometry%20width%3D%2250%22%20height%3D%2250%22%20relative%3D%221%22%20as%3D%22geometry%22%3E%3CmxPoint%20x%3D%22-315%22%20y%3D%22460%22%20as%3D%22sourcePoint%22%2F%3E%3CmxPoint%20x%3D%22-375%22%20y%3D%22540%22%20as%3D%22targetPoint%22%2F%3E%3C%2FmxGeometry%3E%3C%2FmxCell%3E%3CmxCell%20id%3D%223%22%20value%3D%22position%22%20style%3D%22edgeLabel%3Bhtml%3D1%3Balign%3Dcenter%3BverticalAlign%3Dmiddle%3Bresizable%3D0%3Bpoints%3D%5B%5D%3B%22%20vertex%3D%221%22%20connectable%3D%220%22%20parent%3D%222%22%3E%3CmxGeometry%20x%3D%22-0.0496%22%20y%3D%22-3%22%20relative%3D%221%22%20as%3D%22geometry%22%3E%3CmxPoint%20x%3D%22-24%22%20y%3D%224%22%20as%3D%22offset%22%2F%3E%3C%2FmxGeometry%3E%3C%2FmxCell%3E%3C%2Froot%3E%3C%2FmxGraphModel%3E&lt;/span&gt;" style="edgeLabel;html=1;align=center;verticalAlign=middle;resizable=0;points=[];" parent="XpzlnwSWE0qTDpSJB6l2-153" vertex="1" connectable="0">
          <mxGeometry x="-0.0496" y="-3" relative="1" as="geometry">
            <mxPoint x="-24" y="4" as="offset" />
          </mxGeometry>
        </mxCell>
        <mxCell id="XpzlnwSWE0qTDpSJB6l2-156" value="" style="endArrow=none;html=1;rounded=0;exitX=0.16;exitY=-0.03;exitDx=0;exitDy=0;startArrow=classic;startFill=1;entryX=0.75;entryY=1;entryDx=0;entryDy=0;endFill=0;exitPerimeter=0;" parent="1" source="XpzlnwSWE0qTDpSJB6l2-93" target="XpzlnwSWE0qTDpSJB6l2-116" edge="1">
          <mxGeometry width="50" height="50" relative="1" as="geometry">
            <mxPoint x="-600" y="662.8199999999999" as="sourcePoint" />
            <mxPoint x="-689" y="583.8199999999999" as="targetPoint" />
          </mxGeometry>
        </mxCell>
        <mxCell id="XpzlnwSWE0qTDpSJB6l2-157" value="&lt;span style=&quot;color: rgba(0, 0, 0, 0); font-family: monospace; font-size: 0px; text-align: start; background-color: rgb(251, 251, 251);&quot;&gt;%3CmxGraphModel%3E%3Croot%3E%3CmxCell%20id%3D%220%22%2F%3E%3CmxCell%20id%3D%221%22%20parent%3D%220%22%2F%3E%3CmxCell%20id%3D%222%22%20value%3D%22%22%20style%3D%22endArrow%3Dclassic%3Bhtml%3D1%3Brounded%3D0%3BexitX%3D0.5%3BexitY%3D1%3BexitDx%3D0%3BexitDy%3D0%3BentryX%3D0.5%3BentryY%3D0%3BentryDx%3D0%3BentryDy%3D0%3BstartArrow%3Dclassic%3BstartFill%3D1%3B%22%20edge%3D%221%22%20parent%3D%221%22%3E%3CmxGeometry%20width%3D%2250%22%20height%3D%2250%22%20relative%3D%221%22%20as%3D%22geometry%22%3E%3CmxPoint%20x%3D%22-315%22%20y%3D%22460%22%20as%3D%22sourcePoint%22%2F%3E%3CmxPoint%20x%3D%22-375%22%20y%3D%22540%22%20as%3D%22targetPoint%22%2F%3E%3C%2FmxGeometry%3E%3C%2FmxCell%3E%3CmxCell%20id%3D%223%22%20value%3D%22position%22%20style%3D%22edgeLabel%3Bhtml%3D1%3Balign%3Dcenter%3BverticalAlign%3Dmiddle%3Bresizable%3D0%3Bpoints%3D%5B%5D%3B%22%20vertex%3D%221%22%20connectable%3D%220%22%20parent%3D%222%22%3E%3CmxGeometry%20x%3D%22-0.0496%22%20y%3D%22-3%22%20relative%3D%221%22%20as%3D%22geometry%22%3E%3CmxPoint%20x%3D%22-24%22%20y%3D%224%22%20as%3D%22offset%22%2F%3E%3C%2FmxGeometry%3E%3C%2FmxCell%3E%3C%2Froot%3E%3C%2FmxGraphModel%3E&lt;/span&gt;" style="edgeLabel;html=1;align=center;verticalAlign=middle;resizable=0;points=[];" parent="XpzlnwSWE0qTDpSJB6l2-156" vertex="1" connectable="0">
          <mxGeometry x="-0.0496" y="-3" relative="1" as="geometry">
            <mxPoint x="-24" y="4" as="offset" />
          </mxGeometry>
        </mxCell>
        <mxCell id="XpzlnwSWE0qTDpSJB6l2-158" value="callBack" style="rounded=1;whiteSpace=wrap;html=1;" parent="1" vertex="1">
          <mxGeometry x="60" y="70" width="90" height="40" as="geometry" />
        </mxCell>
        <mxCell id="XpzlnwSWE0qTDpSJB6l2-161" value="" style="endArrow=classic;html=1;rounded=0;entryX=0.677;entryY=-0.018;entryDx=0;entryDy=0;exitX=0.321;exitY=1.035;exitDx=0;exitDy=0;exitPerimeter=0;entryPerimeter=0;" parent="1" source="XpzlnwSWE0qTDpSJB6l2-158" target="XpzlnwSWE0qTDpSJB6l2-12" edge="1">
          <mxGeometry width="50" height="50" relative="1" as="geometry">
            <mxPoint x="135" y="27" as="sourcePoint" />
            <mxPoint x="-160" y="100" as="targetPoint" />
          </mxGeometry>
        </mxCell>
        <mxCell id="XpzlnwSWE0qTDpSJB6l2-162" value="board, pUI, possible" style="edgeLabel;html=1;align=center;verticalAlign=middle;resizable=0;points=[];" parent="XpzlnwSWE0qTDpSJB6l2-161" vertex="1" connectable="0">
          <mxGeometry x="0.4612" y="-3" relative="1" as="geometry">
            <mxPoint x="37" y="-20" as="offset" />
          </mxGeometry>
        </mxCell>
        <mxCell id="XpzlnwSWE0qTDpSJB6l2-163" value="" style="endArrow=none;html=1;rounded=0;exitX=0.626;exitY=1.077;exitDx=0;exitDy=0;entryX=0.631;entryY=0.017;entryDx=0;entryDy=0;startArrow=classic;startFill=1;endFill=0;entryPerimeter=0;exitPerimeter=0;" parent="1" source="XpzlnwSWE0qTDpSJB6l2-158" target="XpzlnwSWE0qTDpSJB6l2-111" edge="1">
          <mxGeometry width="50" height="50" relative="1" as="geometry">
            <mxPoint x="288" y="160" as="sourcePoint" />
            <mxPoint x="150" y="345" as="targetPoint" />
          </mxGeometry>
        </mxCell>
        <mxCell id="XpzlnwSWE0qTDpSJB6l2-164" value="posSelect" style="edgeLabel;html=1;align=center;verticalAlign=middle;resizable=0;points=[];" parent="XpzlnwSWE0qTDpSJB6l2-163" vertex="1" connectable="0">
          <mxGeometry x="0.2657" y="-2" relative="1" as="geometry">
            <mxPoint x="13" y="38" as="offset" />
          </mxGeometry>
        </mxCell>
      </root>
    </mxGraphModel>
  </diagram>
</mxfile>
